<?xml version="1.0" encoding="iso-8859-1"?>
<!-- Generator: Adobe Illustrator 19.0.0, SVG Export Plug-In . SVG Version: 6.00 Build 0)  -->
<svg version="1.1" id="Layer_1" xmlns="http://www.w3.org/2000/svg" xmlns:xlink="http://www.w3.org/1999/xlink" x="0px" y="0px"
	 viewBox="0 0 511.999 511.999" style="enable-background:new 0 0 511.999 511.999;" xml:space="preserve">
<path style="fill:#FFC170;" d="M479.113,238.729c-38.339,54.255-106.253,89.694-177.74,89.694c-23.562,0-46.219-3.863-67.388-10.968
	v-11.316h100.279v-44.569l-189.417-66.853L33.426,217.002v155.99l98.196-29.459c38.608,51.696,100.267,85.17,169.751,85.17
	c109.591,0,199.723-83.261,210.626-189.974H479.113z"/>
<circle style="fill:#FFE98F;" cx="389.976" cy="161.293" r="77.995"/>
<path style="fill:#FFDA44;" d="M389.976,83.296c43.076,0,77.995,34.92,77.995,77.995s-34.919,77.995-77.995,77.995"/>
<g>
	<polygon style="fill:#FF9811;" points="334.265,261.571 256.27,234.043 256.27,306.139 334.265,306.139 	"/>
	<path style="fill:#FF9811;" d="M479.113,238.729c-38.339,54.255-106.253,89.694-177.74,89.694c-15.483,0-30.57-1.678-45.103-4.838
		v100.292c14.535,3.154,29.624,4.826,45.103,4.826c109.591,0,199.723-83.261,210.626-189.974H479.113z"/>
</g>
<polygon style="fill:#3C5D76;" points="66.853,384.134 0,384.134 0,172.433 66.853,172.433 89.137,283.855 "/>
<rect x="66.853" y="172.435" style="fill:#78B9EB;" width="33.426" height="211.701"/>
<rect x="33.426" y="261.573" style="fill:#FFFFFF;" width="33.426" height="33.426"/>
<g>
</g>
<g>
</g>
<g>
</g>
<g>
</g>
<g>
</g>
<g>
</g>
<g>
</g>
<g>
</g>
<g>
</g>
<g>
</g>
<g>
</g>
<g>
</g>
<g>
</g>
<g>
</g>
<g>
</g>
</svg>
